<svg xmlns="http://www.w3.org/2000/svg" width="61.5" height="51.5">
    <path fill="none" fill-rule="evenodd" stroke="#15A7E4" d="M6.5.5h48a6 6 0 0 1 6 6v38a6 6 0 0 1-6 6h-48a6 6 0 0 1-6-6v-38a6 6 0 0 1 6-6z"/>
    <path fill="none" fill-rule="evenodd" stroke="#15A7E4" d="M53.5 19.5h-10a2 2 0 0 1-2-2v-8a2 2 0 0 1 2-2h10a2 2 0 0 1 2 2v8a2 2 0 0 1-2 2zm-18 0h-10a2 2 0 0 1-2-2v-8a2 2 0 0 1 2-2h10a2 2 0 0 1 2 2v8a2 2 0 0 1-2 2zm-18 0h-10a2 2 0 0 1-2-2v-8a2 2 0 0 1 2-2h10a2 2 0 0 1 2 2v8a2 2 0 0 1-2 2zm37 7h-49v-1h49v1zm0 5h-49v-1h49v1zm-11 5h-38v-1h38v1z"/>
</svg>
