<svg xmlns="http://www.w3.org/2000/svg" width="50.5" height="51.5">
    <path fill="none" stroke="#15A7E4" d="M49.367 22.171c0-.541-.382-1.05-.922-1.145l-5.823-.891c-.318-1.05-.763-2.1-1.304-3.118 1.082-1.495 2.259-2.895 3.341-4.359.159-.222.254-.445.254-.731 0-.255-.063-.509-.223-.7-1.336-1.877-3.563-3.85-5.249-5.409a1.255 1.255 0 0 0-.795-.318c-.287 0-.573.095-.764.286l-4.518 3.405a18.673 18.673 0 0 0-2.863-1.178L29.61 2.16c-.063-.541-.572-.955-1.145-.955h-7.063c-.572 0-1.018.382-1.145.891-.509 1.909-.7 3.977-.923 5.917-.986.319-1.972.732-2.895 1.209l-4.39-3.404c-.255-.191-.541-.318-.827-.318-1.082 0-5.377 4.645-6.141 5.695-.159.223-.286.445-.286.732 0 .286.127.54.318.763 1.177 1.432 2.323 2.863 3.404 4.391a16.8 16.8 0 0 0-1.24 2.926l-5.918.891c-.477.096-.859.668-.859 1.146v7.062c0 .541.382 1.05.923 1.146l5.822.859a16.868 16.868 0 0 0 1.304 3.149c-1.082 1.496-2.259 2.896-3.34 4.359-.16.223-.255.445-.255.732 0 .254.064.509.223.731 1.336 1.846 3.563 3.818 5.249 5.345.223.223.509.35.796.35.286 0 .572-.095.795-.286l4.486-3.404c.922.477 1.877.859 2.863 1.177l.891 5.854c.063.541.573.954 1.145.954h7.063c.573 0 1.018-.382 1.145-.891.509-1.908.7-3.976.923-5.917a19.219 19.219 0 0 0 2.895-1.209l4.39 3.436c.255.159.541.286.828.286 1.081 0 5.376-4.676 6.14-5.695.191-.222.286-.445.286-.731 0-.287-.127-.573-.318-.796-1.177-1.431-2.322-2.831-3.404-4.39.509-.923.891-1.877 1.241-2.895l5.885-.891c.509-.095.891-.668.891-1.145v-7.063z"/>
    <path fill="none" stroke="#15A7E4" d="M24.5 12.5c7.18 0 13 5.82 13 13s-5.82 13-13 13-13-5.82-13-13 5.82-13 13-13z"/>
</svg>
