<svg xmlns="http://www.w3.org/2000/svg" width="18" height="21">
    <path fill="#EEA800" fill-rule="evenodd" d="M16.187 8.937c.443 0 .814.15 1.114.45.299.299.449.67.449 1.113v3.125c0 .13-.013.247-.039.351l-1.25 5.313a1.461 1.461 0 0 1-.547.879 1.556 1.556 0 0 1-.977.332H5.562c-.286 0-.546-.072-.781-.215a1.882 1.882 0 0 1-.586-.566l-2.5-4.375a1.629 1.629 0 0 1-.176-1.075c.066-.377.254-.683.567-.917l1.211-.977-2.93-7.422a1.856 1.856 0 0 1 .039-1.445 1.854 1.854 0 0 1 1.035-.996 1.753 1.753 0 0 1 1.426.019c.469.208.807.547 1.016 1.016L6.578 10.5h.547V2.375c0-.521.182-.964.547-1.328A1.805 1.805 0 0 1 9 .5c.521 0 .964.182 1.328.547.365.364.547.807.547 1.328V10.5h.312V9.25c0-.443.15-.814.45-1.113.299-.3.67-.45 1.113-.45.443 0 .814.15 1.113.45.3.299.449.67.449 1.113v1.25h.313c0-.443.15-.814.449-1.113.3-.3.671-.45 1.113-.45z"/>
</svg>
