<svg xmlns="http://www.w3.org/2000/svg" width="20" height="21">
    <path fill="#F06319" fill-rule="evenodd" d="M19.717 10.499c0 5.391-4.379 9.77-9.769 9.77C4.557 20.269.2 15.89.2 10.499A9.738 9.738 0 0 1 9.948.752c5.39 0 9.769 4.356 9.769 9.747zm-1.056 0c0-4.797-3.895-8.691-8.713-8.691-4.797 0-8.692 3.894-8.692 8.691 0 4.819 3.895 8.713 8.692 8.713a8.705 8.705 0 0 0 8.713-8.713zm-5.897-.506H5.503c-.22 0-.286.066-.286.286v.462c0 .22.066.286.286.286h7.261l-2.442 2.421c-.132.154-.132.264 0 .418l.352.33c.154.154.242.154.396 0l3.234-3.235c.242-.242.242-.66 0-.924L11.07 6.825c-.154-.154-.242-.154-.396 0l-.352.33c-.132.154-.132.242 0 .396l2.442 2.442z"/>
</svg>
