<svg xmlns="http://www.w3.org/2000/svg" width="38" height="38">
    <defs>
        <linearGradient id="a" x1="0%" x2="0%" y1="100%" y2="0%">
            <stop offset="0%" stop-color="#EB5D74"/>
            <stop offset="100%" stop-color="#F06316"/>
        </linearGradient>
    </defs>
    <path fill="#EE613B" fill-rule="evenodd" d="M31.977 29.235c.514.296.81.724.887 1.283.077.559-.097 1.058-.522 1.498a17.618 17.618 0 0 1-6.629 4.357 18.357 18.357 0 0 1-7.932 1.12c-2.736-.208-5.325-1.018-7.768-2.428-2.871-1.657-5.113-3.909-6.727-6.755C1.673 25.465.847 22.417.809 19.167c-.037-3.25.779-6.321 2.449-9.213 1.67-2.892 3.917-5.152 6.741-6.778A18.39 18.39 0 0 1 19.11.681c3.25-.038 6.331.784 9.245 2.467 2.443 1.41 4.438 3.247 5.987 5.513a18.378 18.378 0 0 1 2.996 7.429 18.42 18.42 0 0 1-.395 7.956c-.143.546-.483.935-1.018 1.169-.534.234-1.059.203-1.573-.094l-1.093-.631a1.716 1.716 0 0 1-.746-.859 1.7 1.7 0 0 1-.064-1.151c.749-2.882.544-5.742-.616-8.583-1.159-2.84-3.089-5.04-5.788-6.599-2.143-1.237-4.428-1.856-6.855-1.858a13.332 13.332 0 0 0-6.793 1.821c-2.101 1.215-3.77 2.893-5.007 5.036-1.237 2.142-1.856 4.427-1.858 6.854a13.318 13.318 0 0 0 1.82 6.793c1.215 2.102 2.894 3.771 5.036 5.008 2.7 1.558 5.57 2.13 8.609 1.713 3.04-.416 5.62-1.668 7.741-3.758a1.702 1.702 0 0 1 1.029-.52c.402-.054.774.019 1.117.217l1.093.631z"/>
    <path fill="url(#a)" d="M31.977 29.235c.514.296.81.724.887 1.283.077.559-.097 1.058-.522 1.498a17.618 17.618 0 0 1-6.629 4.357 18.357 18.357 0 0 1-7.932 1.12c-2.736-.208-5.325-1.018-7.768-2.428-2.871-1.657-5.113-3.909-6.727-6.755C1.673 25.465.847 22.417.809 19.167c-.037-3.25.779-6.321 2.449-9.213 1.67-2.892 3.917-5.152 6.741-6.778A18.39 18.39 0 0 1 19.11.681c3.25-.038 6.331.784 9.245 2.467 2.443 1.41 4.438 3.247 5.987 5.513a18.378 18.378 0 0 1 2.996 7.429 18.42 18.42 0 0 1-.395 7.956c-.143.546-.483.935-1.018 1.169-.534.234-1.059.203-1.573-.094l-1.093-.631a1.716 1.716 0 0 1-.746-.859 1.7 1.7 0 0 1-.064-1.151c.749-2.882.544-5.742-.616-8.583-1.159-2.84-3.089-5.04-5.788-6.599-2.143-1.237-4.428-1.856-6.855-1.858a13.332 13.332 0 0 0-6.793 1.821c-2.101 1.215-3.77 2.893-5.007 5.036-1.237 2.142-1.856 4.427-1.858 6.854a13.318 13.318 0 0 0 1.82 6.793c1.215 2.102 2.894 3.771 5.036 5.008 2.7 1.558 5.57 2.13 8.609 1.713 3.04-.416 5.62-1.668 7.741-3.758a1.702 1.702 0 0 1 1.029-.52c.402-.054.774.019 1.117.217l1.093.631z"/>
    <path fill="#EF6229" fill-rule="evenodd" d="M26 21h-5v5a1 1 0 0 1-1 1h-2a1 1 0 0 1-1-1v-5h-5a1 1 0 0 1-1-1v-2a1 1 0 0 1 1-1h5v-5a1 1 0 0 1 1-1h2a1 1 0 0 1 1 1v5h5a1 1 0 0 1 1 1v2a1 1 0 0 1-1 1z"/>
</svg>
