<svg xmlns="http://www.w3.org/2000/svg" width="47" height="38">
    <defs>
        <linearGradient id="a" x1="0%" x2="0%" y1="100%" y2="0%">
            <stop offset="0%" stop-color="#EB5D74"/>
            <stop offset="100%" stop-color="#F06316"/>
        </linearGradient>
    </defs>
    <path fill="#F06319" fill-rule="evenodd" d="M9.125 4.875c0-1.198-.419-2.216-1.258-3.055C7.029.982 6.01.562 4.812.562c-1.197 0-2.216.42-3.054 1.258C.919 2.659.5 3.677.5 4.875c0 1.198.419 2.216 1.258 3.055.838.838 1.857 1.257 3.054 1.257 1.198 0 2.217-.419 3.055-1.257.839-.839 1.258-1.857 1.258-3.055zM4.812 14.937c1.198 0 2.217.42 3.055 1.258.839.839 1.258 1.857 1.258 3.055 0 1.198-.419 2.216-1.258 3.055-.838.838-1.857 1.257-3.055 1.257-1.197 0-2.216-.419-3.054-1.257C.919 21.466.5 20.448.5 19.25c0-1.198.419-2.216 1.258-3.055.838-.838 1.857-1.258 3.054-1.258zm0 14.375c1.198 0 2.217.42 3.055 1.258.839.839 1.258 1.857 1.258 3.055 0 1.198-.419 2.216-1.258 3.055-.838.838-1.857 1.257-3.055 1.257-1.197 0-2.216-.419-3.054-1.257C.919 35.841.5 34.823.5 33.625c0-1.198.419-2.216 1.258-3.055.838-.838 1.857-1.258 3.054-1.258zm8.625-21.203c-.419 0-.763-.134-1.033-.404-.269-.27-.404-.614-.404-1.033V3.078c0-.419.135-.764.404-1.033.27-.27.614-.404 1.033-.404h31.625c.42 0 .764.134 1.034.404.269.269.404.614.404 1.033v3.594c0 .419-.135.763-.404 1.033-.27.27-.614.404-1.034.404H13.437zm0 14.375c-.419 0-.763-.134-1.033-.404-.269-.27-.404-.614-.404-1.033v-3.594c0-.419.135-.764.404-1.033.27-.27.614-.404 1.033-.404h31.625c.42 0 .764.134 1.034.404.269.269.404.614.404 1.033v3.594c0 .419-.135.763-.404 1.033-.27.27-.614.404-1.034.404H13.437zm0 14.375c-.419 0-.763-.134-1.033-.404-.269-.27-.404-.614-.404-1.033v-3.594c0-.419.135-.764.404-1.033.27-.27.614-.404 1.033-.404h31.625c.42 0 .764.134 1.034.404.269.269.404.614.404 1.033v3.594c0 .419-.135.763-.404 1.033-.27.27-.614.404-1.034.404H13.437z"/>
    <path fill="url(#a)" d="M9.125 4.875c0-1.198-.419-2.216-1.258-3.055C7.029.982 6.01.562 4.812.562c-1.197 0-2.216.42-3.054 1.258C.919 2.659.5 3.677.5 4.875c0 1.198.419 2.216 1.258 3.055.838.838 1.857 1.257 3.054 1.257 1.198 0 2.217-.419 3.055-1.257.839-.839 1.258-1.857 1.258-3.055zM4.812 14.937c1.198 0 2.217.42 3.055 1.258.839.839 1.258 1.857 1.258 3.055 0 1.198-.419 2.216-1.258 3.055-.838.838-1.857 1.257-3.055 1.257-1.197 0-2.216-.419-3.054-1.257C.919 21.466.5 20.448.5 19.25c0-1.198.419-2.216 1.258-3.055.838-.838 1.857-1.258 3.054-1.258zm0 14.375c1.198 0 2.217.42 3.055 1.258.839.839 1.258 1.857 1.258 3.055 0 1.198-.419 2.216-1.258 3.055-.838.838-1.857 1.257-3.055 1.257-1.197 0-2.216-.419-3.054-1.257C.919 35.841.5 34.823.5 33.625c0-1.198.419-2.216 1.258-3.055.838-.838 1.857-1.258 3.054-1.258zm8.625-21.203c-.419 0-.763-.134-1.033-.404-.269-.27-.404-.614-.404-1.033V3.078c0-.419.135-.764.404-1.033.27-.27.614-.404 1.033-.404h31.625c.42 0 .764.134 1.034.404.269.269.404.614.404 1.033v3.594c0 .419-.135.763-.404 1.033-.27.27-.614.404-1.034.404H13.437zm0 14.375c-.419 0-.763-.134-1.033-.404-.269-.27-.404-.614-.404-1.033v-3.594c0-.419.135-.764.404-1.033.27-.27.614-.404 1.033-.404h31.625c.42 0 .764.134 1.034.404.269.269.404.614.404 1.033v3.594c0 .419-.135.763-.404 1.033-.27.27-.614.404-1.034.404H13.437zm0 14.375c-.419 0-.763-.134-1.033-.404-.269-.27-.404-.614-.404-1.033v-3.594c0-.419.135-.764.404-1.033.27-.27.614-.404 1.033-.404h31.625c.42 0 .764.134 1.034.404.269.269.404.614.404 1.033v3.594c0 .419-.135.763-.404 1.033-.27.27-.614.404-1.034.404H13.437z"/>
</svg>
