<svg xmlns="http://www.w3.org/2000/svg" width="48" height="42">
    <defs>
        <linearGradient id="a" x1="0%" x2="0%" y1="100%" y2="0%">
            <stop offset="0%" stop-color="#EB5D74"/>
            <stop offset="100%" stop-color="#F06316"/>
        </linearGradient>
    </defs>
    <path fill="#FFF" fill-rule="evenodd" d="M47.578 30.749a1.388 1.388 0 0 1-1.025.426H34.714v-7.794h6.777a.692.692 0 0 0 .512-.213.705.705 0 0 0 .211-.517v-.487a.708.708 0 0 0-.211-.518.692.692 0 0 0-.512-.213h-6.777v-1.949h6.777a.692.692 0 0 0 .512-.213.705.705 0 0 0 .211-.517v-.487a.708.708 0 0 0-.211-.518.692.692 0 0 0-.512-.213h-6.777v-1.948h6.777a.693.693 0 0 0 .512-.214.705.705 0 0 0 .211-.517v-.487a.708.708 0 0 0-.211-.518.692.692 0 0 0-.512-.213h-6.777V8.66L26.802 0h11.555v8.281c0 .406.141.751.422 1.035.281.284.623.426 1.025.426H48v19.972c0 .406-.141.751-.422 1.035zM40.286 0h.361c.402 0 .744.142 1.025.426l5.906 5.967c.281.284.422.629.422 1.035v.366h-7.714V0zm-9.429 10.338v.487H20.571V.433h.483c.535 0 .991.189 1.366.568l7.875 7.956c.375.379.562.839.562 1.381zm0 29.713a1.89 1.89 0 0 1-.562 1.381 1.855 1.855 0 0 1-1.367.568H1.929c-.536 0-.992-.19-1.367-.568A1.89 1.89 0 0 1 0 40.051V2.381c0-.541.187-1.001.562-1.38A1.851 1.851 0 0 1 1.929.433H18v11.041c0 .541.187 1.001.562 1.38.375.379.831.569 1.366.569h10.929v26.628zm-7.714-20.458a.945.945 0 0 0-.281-.69.926.926 0 0 0-.683-.285h-13.5a.926.926 0 0 0-.684.285.945.945 0 0 0-.281.69v.649c0 .271.094.501.281.69.188.19.416.284.684.284h13.5a.925.925 0 0 0 .683-.284.945.945 0 0 0 .281-.69v-.649zm0 5.196a.949.949 0 0 0-.281-.691.929.929 0 0 0-.683-.284h-13.5a.93.93 0 0 0-.684.284.949.949 0 0 0-.281.691v.649c0 .271.094.501.281.69.188.19.416.284.684.284h13.5a.925.925 0 0 0 .683-.284.945.945 0 0 0 .281-.69v-.649zm0 5.195c0-.27-.094-.5-.281-.69a.929.929 0 0 0-.683-.284h-13.5a.93.93 0 0 0-.684.284.948.948 0 0 0-.281.69v.65c0 .271.094.501.281.69a.93.93 0 0 0 .684.284h13.5a.929.929 0 0 0 .683-.284.945.945 0 0 0 .281-.69v-.65z"/>
    <path fill="url(#a)" d="M47.578 30.749a1.388 1.388 0 0 1-1.025.426H34.714v-7.794h6.777a.692.692 0 0 0 .512-.213.705.705 0 0 0 .211-.517v-.487a.708.708 0 0 0-.211-.518.692.692 0 0 0-.512-.213h-6.777v-1.949h6.777a.692.692 0 0 0 .512-.213.705.705 0 0 0 .211-.517v-.487a.708.708 0 0 0-.211-.518.692.692 0 0 0-.512-.213h-6.777v-1.948h6.777a.693.693 0 0 0 .512-.214.705.705 0 0 0 .211-.517v-.487a.708.708 0 0 0-.211-.518.692.692 0 0 0-.512-.213h-6.777V8.66L26.802 0h11.555v8.281c0 .406.141.751.422 1.035.281.284.623.426 1.025.426H48v19.972c0 .406-.141.751-.422 1.035zM40.286 0h.361c.402 0 .744.142 1.025.426l5.906 5.967c.281.284.422.629.422 1.035v.366h-7.714V0zm-9.429 10.338v.487H20.571V.433h.483c.535 0 .991.189 1.366.568l7.875 7.956c.375.379.562.839.562 1.381zm0 29.713a1.89 1.89 0 0 1-.562 1.381 1.855 1.855 0 0 1-1.367.568H1.929c-.536 0-.992-.19-1.367-.568A1.89 1.89 0 0 1 0 40.051V2.381c0-.541.187-1.001.562-1.38A1.851 1.851 0 0 1 1.929.433H18v11.041c0 .541.187 1.001.562 1.38.375.379.831.569 1.366.569h10.929v26.628zm-7.714-20.458a.945.945 0 0 0-.281-.69.926.926 0 0 0-.683-.285h-13.5a.926.926 0 0 0-.684.285.945.945 0 0 0-.281.69v.649c0 .271.094.501.281.69.188.19.416.284.684.284h13.5a.925.925 0 0 0 .683-.284.945.945 0 0 0 .281-.69v-.649zm0 5.196a.949.949 0 0 0-.281-.691.929.929 0 0 0-.683-.284h-13.5a.93.93 0 0 0-.684.284.949.949 0 0 0-.281.691v.649c0 .271.094.501.281.69.188.19.416.284.684.284h13.5a.925.925 0 0 0 .683-.284.945.945 0 0 0 .281-.69v-.649zm0 5.195c0-.27-.094-.5-.281-.69a.929.929 0 0 0-.683-.284h-13.5a.93.93 0 0 0-.684.284.948.948 0 0 0-.281.69v.65c0 .271.094.501.281.69a.93.93 0 0 0 .684.284h13.5a.929.929 0 0 0 .683-.284.945.945 0 0 0 .281-.69v-.65z"/>
</svg>
