<svg xmlns="http://www.w3.org/2000/svg" width="18" height="23">
    <path fill="#EEA800" fill-rule="evenodd" d="M15.814 2.973c.503.135.884.425 1.141.872.258.446.32.921.185 1.424l-4.206 15.697a1.807 1.807 0 0 1-.872 1.141 1.805 1.805 0 0 1-1.424.184l-8.452-2.264a1.808 1.808 0 0 1-1.141-.872A1.808 1.808 0 0 1 .86 17.73L5.066 2.034c.135-.503.425-.884.872-1.141.446-.258.921-.32 1.424-.185l8.452 2.265zM6.735 19.952c.327.087.642.044.945-.131a1.2 1.2 0 0 0 .586-.753 1.2 1.2 0 0 0-.131-.945 1.2 1.2 0 0 0-.753-.586 1.2 1.2 0 0 0-.945.131 1.203 1.203 0 0 0-.586.753c-.087.327-.044.642.131.945.175.303.426.498.753.586zm5.318-2.943l3.154-11.772a.448.448 0 0 0-.046-.356.446.446 0 0 0-.285-.218L7.33 2.641a.448.448 0 0 0-.356.046.446.446 0 0 0-.218.285L3.601 14.744a.456.456 0 0 0 .046.356.45.45 0 0 0 .286.218l7.546 2.022a.448.448 0 0 0 .356-.046.45.45 0 0 0 .218-.285z"/>
</svg>
