<svg xmlns="http://www.w3.org/2000/svg" width="33" height="49">
    <defs>
        <linearGradient id="a" x1="0%" x2="0%" y1="100%" y2="0%">
            <stop offset="0%" stop-color="#EB5D74"/>
            <stop offset="100%" stop-color="#F06316"/>
        </linearGradient>
    </defs>
    <path fill="#F06319" fill-rule="evenodd" d="M7.5 24.5c0 2.5.875 4.625 2.625 6.375S14 33.5 16.5 33.5s4.625-.875 6.375-2.625S25.5 27 25.5 24.5v-15c0-2.5-.875-4.625-2.625-6.375S19 .5 16.5.5s-4.625.875-6.375 2.625S7.5 7 7.5 9.5v15zm23.625-5.25c.312 0 .578.109.797.328.219.219.328.484.328.797V24.5c0 2.625-.594 5.047-1.781 7.266a15.959 15.959 0 0 1-4.875 5.531 15.638 15.638 0 0 1-6.844 2.765v4.313h6.375c.312 0 .578.109.797.328.219.219.328.484.328.797v1.875c0 .312-.109.578-.328.797a1.085 1.085 0 0 1-.797.328H7.875c-.313 0-.578-.109-.797-.328a1.085 1.085 0 0 1-.328-.797V45.5c0-.313.109-.578.328-.797.219-.219.484-.328.797-.328h6.375v-4.313a15.638 15.638 0 0 1-6.844-2.765 15.959 15.959 0 0 1-4.875-5.531C1.344 29.547.75 27.125.75 24.5v-4.125c0-.313.109-.578.328-.797.219-.219.484-.328.797-.328h2.25c.312 0 .578.109.797.328.219.219.328.484.328.797V24.5c0 2.062.516 3.953 1.547 5.672a11.458 11.458 0 0 0 4.125 4.078c1.719 1 3.594 1.5 5.625 1.5s3.906-.516 5.625-1.547a11.349 11.349 0 0 0 4.078-4.172c1-1.75 1.5-3.625 1.5-5.625v-4.031c0-.313.109-.578.328-.797.219-.219.484-.328.797-.328h2.25z"/>
    <path fill="url(#a)" d="M7.5 24.5c0 2.5.875 4.625 2.625 6.375S14 33.5 16.5 33.5s4.625-.875 6.375-2.625S25.5 27 25.5 24.5v-15c0-2.5-.875-4.625-2.625-6.375S19 .5 16.5.5s-4.625.875-6.375 2.625S7.5 7 7.5 9.5v15zm23.625-5.25c.312 0 .578.109.797.328.219.219.328.484.328.797V24.5c0 2.625-.594 5.047-1.781 7.266a15.959 15.959 0 0 1-4.875 5.531 15.638 15.638 0 0 1-6.844 2.765v4.313h6.375c.312 0 .578.109.797.328.219.219.328.484.328.797v1.875c0 .312-.109.578-.328.797a1.085 1.085 0 0 1-.797.328H7.875c-.313 0-.578-.109-.797-.328a1.085 1.085 0 0 1-.328-.797V45.5c0-.313.109-.578.328-.797.219-.219.484-.328.797-.328h6.375v-4.313a15.638 15.638 0 0 1-6.844-2.765 15.959 15.959 0 0 1-4.875-5.531C1.344 29.547.75 27.125.75 24.5v-4.125c0-.313.109-.578.328-.797.219-.219.484-.328.797-.328h2.25c.312 0 .578.109.797.328.219.219.328.484.328.797V24.5c0 2.062.516 3.953 1.547 5.672a11.458 11.458 0 0 0 4.125 4.078c1.719 1 3.594 1.5 5.625 1.5s3.906-.516 5.625-1.547a11.349 11.349 0 0 0 4.078-4.172c1-1.75 1.5-3.625 1.5-5.625v-4.031c0-.313.109-.578.328-.797.219-.219.484-.328.797-.328h2.25z"/>
</svg>
