<svg xmlns="http://www.w3.org/2000/svg" width="37" height="37">
    <defs>
        <filter id="a" width="37" height="37" x="0" y="0" filterUnits="userSpaceOnUse">
            <feOffset dy="2" in="SourceAlpha"/>
            <feGaussianBlur result="blurOut" stdDeviation="2"/>
            <feFlood flood-color="#222" result="floodOut"/>
            <feComposite in="floodOut" in2="blurOut" operator="atop"/>
            <feComponentTransfer>
                <feFuncA slope=".25" type="linear"/>
            </feComponentTransfer>
            <feMerge>
                <feMergeNode/>
                <feMergeNode in="SourceGraphic"/>
            </feMerge>
        </filter>
    </defs>
    <path fill="#2CD8E8" fill-rule="evenodd" d="M18 1c8.284 0 15 6.716 15 15 0 8.284-6.716 15-15 15-8.284 0-15-6.716-15-15C3 7.716 9.716 1 18 1z" filter="url(#a)"/>
    <path fill="#FDFDFD" fill-rule="evenodd" d="M20.027 7.867h-4.054l.597 11.449h2.86l.597-11.449zm-3.943 16.36c.105.25.252.457.439.621.188.164.407.283.657.357.25.074.519.111.808.111.274 0 .533-.037.78-.111.246-.074.462-.193.65-.357.187-.164.336-.371.445-.621.11-.25.164-.551.164-.903 0-.367-.054-.677-.164-.931a1.625 1.625 0 0 0-.445-.616 1.774 1.774 0 0 0-.65-.34 2.842 2.842 0 0 0-.78-.105c-.289 0-.558.035-.808.105-.25.071-.469.184-.657.34a1.571 1.571 0 0 0-.439.616c-.106.254-.158.564-.158.931 0 .352.052.653.158.903z"/>
</svg>
