<svg xmlns="http://www.w3.org/2000/svg" width="49" height="49">
    <defs>
        <linearGradient id="a" x1="0%" x2="0%" y1="100%" y2="0%">
            <stop offset="0%" stop-color="#EB5D74"/>
            <stop offset="100%" stop-color="#F06316"/>
        </linearGradient>
    </defs>
    <path fill="#F06319" fill-rule="evenodd" d="M28.25 36.5c.625 0 1.156-.219 1.594-.656.437-.438.656-.969.656-1.594V18.5h8.25c.812 0 1.375-.391 1.687-1.172.313-.781.188-1.453-.375-2.016l-14.25-14.25C25.437.687 25 .5 24.5.5s-.938.187-1.313.562l-14.25 14.25c-.562.563-.687 1.235-.375 2.016.313.781.875 1.172 1.688 1.172h8.25v15.75c0 .625.219 1.156.656 1.594.438.437.969.656 1.594.656h7.5zm20.25-.75c0-.625-.219-1.156-.656-1.594a2.173 2.173 0 0 0-1.594-.656H33.5v.75c0 1.437-.516 2.672-1.547 3.703-1.031 1.031-2.266 1.547-3.703 1.547h-7.5c-1.438 0-2.672-.516-3.703-1.547-1.031-1.031-1.547-2.266-1.547-3.703v-.75H2.75c-.625 0-1.156.219-1.594.656A2.173 2.173 0 0 0 .5 35.75v10.5c0 .625.219 1.156.656 1.594.438.437.969.656 1.594.656h43.5c.625 0 1.156-.219 1.594-.656.437-.438.656-.969.656-1.594v-10.5zM36.875 44c0 .5-.188.937-.563 1.312-.375.375-.812.563-1.312.563s-.938-.188-1.313-.563c-.375-.375-.562-.812-.562-1.312s.187-.938.562-1.313c.375-.375.813-.562 1.313-.562s.937.187 1.312.562c.375.375.563.813.563 1.313zm6 0c0 .5-.188.937-.563 1.312-.375.375-.812.563-1.312.563s-.938-.188-1.313-.563c-.375-.375-.562-.812-.562-1.312s.187-.938.562-1.313c.375-.375.813-.562 1.313-.562s.937.187 1.312.562c.375.375.563.813.563 1.313z"/>
    <path fill="url(#a)" d="M28.25 36.5c.625 0 1.156-.219 1.594-.656.437-.438.656-.969.656-1.594V18.5h8.25c.812 0 1.375-.391 1.687-1.172.313-.781.188-1.453-.375-2.016l-14.25-14.25C25.437.687 25 .5 24.5.5s-.938.187-1.313.562l-14.25 14.25c-.562.563-.687 1.235-.375 2.016.313.781.875 1.172 1.688 1.172h8.25v15.75c0 .625.219 1.156.656 1.594.438.437.969.656 1.594.656h7.5zm20.25-.75c0-.625-.219-1.156-.656-1.594a2.173 2.173 0 0 0-1.594-.656H33.5v.75c0 1.437-.516 2.672-1.547 3.703-1.031 1.031-2.266 1.547-3.703 1.547h-7.5c-1.438 0-2.672-.516-3.703-1.547-1.031-1.031-1.547-2.266-1.547-3.703v-.75H2.75c-.625 0-1.156.219-1.594.656A2.173 2.173 0 0 0 .5 35.75v10.5c0 .625.219 1.156.656 1.594.438.437.969.656 1.594.656h43.5c.625 0 1.156-.219 1.594-.656.437-.438.656-.969.656-1.594v-10.5zM36.875 44c0 .5-.188.937-.563 1.312-.375.375-.812.563-1.312.563s-.938-.188-1.313-.563c-.375-.375-.562-.812-.562-1.312s.187-.938.562-1.313c.375-.375.813-.562 1.313-.562s.937.187 1.312.562c.375.375.563.813.563 1.313zm6 0c0 .5-.188.937-.563 1.312-.375.375-.812.563-1.312.563s-.938-.188-1.313-.563c-.375-.375-.562-.812-.562-1.312s.187-.938.562-1.313c.375-.375.813-.562 1.313-.562s.937.187 1.312.562c.375.375.563.813.563 1.313z"/>
</svg>
