<svg xmlns="http://www.w3.org/2000/svg" width="20" height="21">
    <path fill="#4A4A4A" fill-rule="evenodd" d="M9.684.906h.484c.22 0 .286.066.286.286v8.999c.704-.704 1.386-1.408 2.09-2.09.154-.154.242-.154.396 0l.33.33c.154.154.154.264 0 .396-.924.946-1.87 1.892-2.794 2.816-.33.33-.771.33-1.079 0-.946-.924-1.87-1.87-2.816-2.816-.154-.132-.154-.242 0-.396l.33-.33c.154-.154.264-.154.418 0 .682.682 1.386 1.386 2.068 2.09V1.192c0-.22.088-.286.287-.286zm3.696 5.302c-.22 0-.286-.066-.286-.286V5.46c0-.22.066-.286.286-.286h2.618a.91.91 0 0 1 .859.594l2.794 7.349v6.359a.93.93 0 0 1-.924.925H1.124a.93.93 0 0 1-.924-.925v-6.359l2.795-7.349a.937.937 0 0 1 .88-.594h2.596c.22 0 .286.066.286.286v.462c0 .22-.066.286-.286.286h-2.53l-2.465 6.469h5.039c.462 0 .858.352.924.837a2.502 2.502 0 0 0 2.487 2.222 2.54 2.54 0 0 0 2.508-2.222.914.914 0 0 1 .924-.837h5.017L15.91 6.208h-2.53zM1.256 19.366h17.361v-5.632h-5.171c-.242 1.738-1.76 3.036-3.52 3.036a3.571 3.571 0 0 1-3.521-3.036H1.256v5.632z"/>
</svg>
