<svg xmlns="http://www.w3.org/2000/svg" width="41.5" height="31.5">
    <path fill="#FFF" fill-rule="evenodd" stroke="#989898" d="M4.5.499h32a4 4 0 0 1 4 4V26.5a4 4 0 0 1-4 3.999h-32a4 4 0 0 1-4-3.999V4.499a4 4 0 0 1 4-4z"/>
    <path fill="#989898" fill-rule="evenodd" d="M26.5 17.281a.424.424 0 0 0-.125-.312L20.5 12.156a.42.42 0 0 0-.25-.094.42.42 0 0 0-.25.094l-5.875 4.813a.424.424 0 0 0-.125.312v4.469c0 .208.073.385.219.531a.723.723 0 0 0 .531.219h3.625a.362.362 0 0 0 .266-.109.362.362 0 0 0 .109-.266v-3.5c0-.104.036-.193.109-.266a.362.362 0 0 1 .266-.109h2.25c.104 0 .193.036.266.109a.366.366 0 0 1 .109.266v3.5c0 .104.036.193.109.266a.362.362 0 0 0 .266.109h3.625a.723.723 0 0 0 .531-.219.723.723 0 0 0 .219-.531v-4.469zm2.625-1.906a.396.396 0 0 1 .109.25.383.383 0 0 1-.078.281l-.781.969a.299.299 0 0 1-.25.125.453.453 0 0 1-.281-.094L20.5 10.875a.413.413 0 0 0-.25-.094.413.413 0 0 0-.25.094l-7.344 6.031a.453.453 0 0 1-.281.094.297.297 0 0 1-.25-.125l-.781-.969a.383.383 0 0 1-.078-.281.39.39 0 0 1 .109-.25l7.937-6.531c.271-.229.584-.344.938-.344s.677.115.969.344L24 11.156V8.875c0-.104.036-.193.109-.266a.362.362 0 0 1 .266-.109h1.75c.104 0 .193.036.266.109a.362.362 0 0 1 .109.266v4.344l2.625 2.156z"/>
</svg>
