<svg xmlns="http://www.w3.org/2000/svg" width="18" height="21">
    <path fill="#F06319" fill-rule="evenodd" d="M16.953 14.797c.365.39.547.84.547 1.348 0 .507-.176.943-.527 1.308-.352.365-.801.547-1.348.547H11.25c0 .703-.241 1.296-.723 1.777-.481.482-1.074.723-1.777.723-.703 0-1.296-.241-1.777-.723-.482-.481-.723-1.074-.723-1.777H1.875c-.547 0-.996-.182-1.348-.547A1.822 1.822 0 0 1 0 16.145c0-.508.195-.958.586-1.348.391-.391.677-.742.859-1.055.313-.495.56-1.107.742-1.836.209-.885.313-1.979.313-3.281 0-1.016.228-1.966.684-2.852a6.267 6.267 0 0 1 1.874-2.207 6.026 6.026 0 0 1 2.676-1.113A1.144 1.144 0 0 1 7.5 1.75c0-.339.124-.632.371-.879S8.411.5 8.75.5c.338 0 .631.124.879.371.247.247.371.54.371.879 0 .26-.078.495-.234.703a6.018 6.018 0 0 1 2.675 1.113 6.26 6.26 0 0 1 1.875 2.207c.456.886.684 1.836.684 2.852 0 1.302.104 2.396.312 3.281.183.729.43 1.341.743 1.836.182.313.481.664.898 1.055zm-8.203 4.14a.905.905 0 0 1-.664-.273.906.906 0 0 1-.274-.664h-.625c0 .443.15.814.45 1.113.299.3.67.449 1.113.449.078 0 .15-.032.215-.097a.299.299 0 0 0 .097-.215.299.299 0 0 0-.097-.215.3.3 0 0 0-.215-.098z"/>
</svg>
