<svg xmlns="http://www.w3.org/2000/svg" width="84" height="12">
    <path fill="#002B49" fill-rule="evenodd" d="M81.786 5.88c-.552.465-.828 1.093-.828 1.885v4.139h-2.172V3.321h2.172v1.652c.301-.556.71-.981 1.229-1.275.517-.294 1.122-.447 1.812-.457v2.021c-.925-.054-1.662.152-2.213.618zM70.402 8.342c.145.61.443 1.089.894 1.436.451.348 1.006.521 1.662.521a3.52 3.52 0 0 0 1.312-.248 3.224 3.224 0 0 0 1.095-.714l1.169 1.171a4.519 4.519 0 0 1-1.629 1.091c-.641.256-1.35.385-2.13.385-.913 0-1.719-.182-2.415-.546a3.889 3.889 0 0 1-1.612-1.532c-.379-.657-.568-1.414-.568-2.27 0-.855.192-1.614.576-2.278a4.002 4.002 0 0 1 1.613-1.548c.69-.369 1.475-.553 2.355-.553 1.426 0 2.499.39 3.217 1.171.719.78 1.078 1.877 1.078 3.288 0 .279-.007.487-.017.626h-6.6zm3.977-2.904c-.412-.374-.958-.561-1.638-.561-.635 0-1.167.184-1.595.553-.429.369-.693.875-.794 1.517h4.678c-.022-.632-.239-1.134-.651-1.509zm-9.063 6.466L62.893 8.15l-1.369 1.379v2.375h-2.173V0h2.173v6.898L65.2 3.337h2.505l-3.308 3.305 3.509 5.262h-2.59zM54.663 0h2.172v11.904h-2.172V0zm-4.47 10.861a2.933 2.933 0 0 1-1.204.85c-.49.193-1.052.289-1.688.289-.624 0-1.172-.115-1.645-.345a2.6 2.6 0 0 1-1.095-.955 2.502 2.502 0 0 1-.384-1.363c0-.802.295-1.431.886-1.885.59-.455 1.425-.687 2.506-.698h2.607v-.225c0-.502-.174-.892-.519-1.171-.345-.278-.846-.417-1.503-.417-.847 0-1.732.267-2.657.802l-.785-1.444c.701-.374 1.339-.644 1.913-.81.573-.165 1.245-.248 2.013-.248 1.159 0 2.058.267 2.699.802.64.535.966 1.283.977 2.246l.017 5.615h-2.138v-1.043zm-.017-2.711H47.92c-.58 0-1.005.083-1.278.248-.273.166-.409.436-.409.81 0 .364.142.653.425.867.284.214.671.321 1.162.321.623 0 1.158-.142 1.604-.425.445-.284.695-.634.752-1.051v-.77zm-9.357 1.756c.155.166.39.249.701.249.334 0 .758-.118 1.27-.353l.501 1.572a4.368 4.368 0 0 1-2.238.626c-.769 0-1.398-.217-1.888-.65-.491-.433-.736-1.072-.736-1.917V5.198h-1.253l-.016-1.524h1.269V1.316h2.156v2.358h2.557v1.524h-2.557v3.866c0 .396.077.677.234.842zM29.678 8.342c.144.61.442 1.089.894 1.436.451.348 1.004.521 1.662.521a3.52 3.52 0 0 0 1.312-.248 3.244 3.244 0 0 0 1.095-.714l1.169 1.171a4.532 4.532 0 0 1-1.63 1.091c-.64.256-1.35.385-2.13.385-.913 0-1.718-.182-2.414-.546a3.895 3.895 0 0 1-1.612-1.532c-.379-.657-.568-1.414-.568-2.27 0-.855.192-1.614.576-2.278a4 4 0 0 1 1.612-1.548c.691-.369 1.476-.553 2.356-.553 1.426 0 2.498.39 3.217 1.171.718.78 1.077 1.877 1.077 3.288 0 .279-.006.487-.017.626h-6.599zm3.976-2.904c-.412-.374-.958-.561-1.637-.561-.635 0-1.167.184-1.595.553-.43.369-.694.875-.794 1.517h4.678c-.022-.632-.239-1.134-.652-1.509zM24.19 9.906c.155.166.389.249.701.249.334 0 .757-.118 1.27-.353l.501 1.572a4.374 4.374 0 0 1-2.239.626c-.769 0-1.398-.217-1.888-.65-.49-.433-.735-1.072-.735-1.917V5.198h-1.253l-.017-1.524h1.27V1.316h2.155v2.358h2.557v1.524h-2.557v3.866c0 .396.078.677.235.842zm-6.719 1.532c-.707.364-1.523.546-2.448.546-.936 0-1.76-.182-2.473-.546a4.005 4.005 0 0 1-1.662-1.54c-.396-.663-.594-1.428-.594-2.294 0-.855.198-1.612.594-2.27a4.032 4.032 0 0 1 1.662-1.532c.713-.363 1.537-.545 2.473-.545.925 0 1.741.182 2.448.545a4.054 4.054 0 0 1 1.654 1.532c.395.658.593 1.415.593 2.27 0 .866-.198 1.631-.593 2.294a4.026 4.026 0 0 1-1.654 1.54zm-.643-5.679c-.468-.481-1.07-.722-1.805-.722-.757 0-1.37.241-1.838.722-.467.482-.702 1.107-.702 1.877s.235 1.396.702 1.877c.468.482 1.081.722 1.838.722.735 0 1.337-.24 1.805-.722.468-.481.702-1.107.702-1.877s-.234-1.395-.702-1.877zM6.499 7.155c0-.599-.179-1.072-.535-1.42-.357-.347-.841-.521-1.454-.521-.724.011-1.295.246-1.712.706-.418.46-.626 1.048-.626 1.765v4.219H0V3.321h2.172v1.604c.612-1.101 1.681-1.663 3.207-1.684 1.025 0 1.833.297 2.423.89.59.593.886 1.398.886 2.414v5.359H6.499V7.155z"/>
</svg>
